<?xml version="1.0" encoding="utf-8"?>
<!-- Generator: Adobe Illustrator 26.0.3, SVG Export Plug-In . SVG Version: 6.00 Build 0)  -->
<svg version="1.1" id="Layer_1" xmlns="http://www.w3.org/2000/svg" xmlns:xlink="http://www.w3.org/1999/xlink" x="0px" y="0px"
	 viewBox="0 0 109.8 14.1" style="enable-background:new 0 0 109.8 14.1;" xml:space="preserve">
<style type="text/css">
	.st0{enable-background:new    ;}
	.st1{fill:#010202;}
</style>
<g class="st0">
	<path class="st1" d="M10,4.3C8.7,3.1,7.5,3,6.8,3C4.3,3,2.6,4.9,2.6,7.4c0,2.5,1.8,4.4,4.2,4.4c1.4,0,2.5-0.7,3.1-1.3v2.1
		c-1.2,0.7-2.4,0.9-3.2,0.9c-2.1,0-3.4-1-4.1-1.6c-1.4-1.3-1.9-2.8-1.9-4.4c0-2.1,0.9-3.6,1.9-4.5c1.2-1.1,2.6-1.5,4.2-1.5
		C8,1.4,9,1.6,10,2.2V4.3z"/>
	<path class="st1" d="M19.6,3.2H15v2.9h4.5v1.7H15v3.7h4.6v1.7h-6.4V1.6h6.4V3.2z"/>
	<path class="st1" d="M31.5,4.3C30.2,3.1,29,3,28.3,3c-2.5,0-4.2,1.9-4.2,4.4c0,2.5,1.8,4.4,4.2,4.4c1.4,0,2.5-0.7,3.1-1.3v2.1
		c-1.2,0.7-2.4,0.9-3.2,0.9c-2.1,0-3.4-1-4.1-1.6c-1.4-1.3-1.9-2.8-1.9-4.4c0-2.1,0.9-3.6,1.9-4.5c1.2-1.1,2.6-1.5,4.2-1.5
		c1.1,0,2.1,0.2,3.1,0.8V4.3z"/>
	<path class="st1" d="M41.1,3.2h-4.6v2.9h4.5v1.7h-4.5v3.7h4.6v1.7h-6.4V1.6h6.4V3.2z"/>
	<path class="st1" d="M54.4,4.1c-0.1-0.3-0.3-0.5-0.5-0.7C53.5,3.1,53.2,3,52.7,3C51.6,3,51,3.6,51,4.4c0,0.3,0.1,1,1.3,1.4l1.2,0.5
		c2.1,0.9,2.7,2.1,2.7,3.4c0,2.2-1.6,3.7-3.7,3.7c-1.3,0-2.1-0.5-2.7-1.2c-0.6-0.7-0.9-1.5-1-2.3l1.8-0.4c0,0.6,0.2,1.1,0.5,1.5
		c0.3,0.4,0.8,0.7,1.5,0.7c1.1,0,1.9-0.8,1.9-2c0-1.2-0.9-1.7-1.7-2l-1.1-0.5c-1-0.4-2.4-1.2-2.4-2.9c0-1.6,1.2-3.1,3.4-3.1
		c1.3,0,2,0.5,2.3,0.8c0.3,0.3,0.6,0.7,0.9,1.2L54.4,4.1z"/>
	<path class="st1" d="M62.3,3.2v9.9h-1.8V3.2h-2.7V1.6h7.1v1.7H62.3z"/>
	<path class="st1" d="M69.3,1.6v7c0,0.6,0,1.4,0.4,2c0.3,0.6,1.1,1.2,2.2,1.2s1.8-0.6,2.2-1.2c0.3-0.6,0.4-1.4,0.4-2v-7h1.8V9
		c0,0.9-0.2,2-1.1,3c-0.6,0.7-1.6,1.4-3.2,1.4s-2.6-0.7-3.2-1.4c-0.9-1-1.1-2.1-1.1-3V1.6H69.3z"/>
	<path class="st1" d="M82.3,1.6c1.6,0,3,0.2,4.3,1.1c1.4,1.1,2.2,2.8,2.2,4.7c0,1.9-0.8,3.6-2.3,4.7c-1.4,1-2.6,1.1-4.2,1.1h-2.4
		V1.6H82.3z M81.7,11.5h0.8c0.9,0,2.1-0.1,3.1-0.8c0.8-0.6,1.6-1.7,1.6-3.3c0-1.5-0.7-2.7-1.6-3.3c-1-0.7-2.2-0.8-3.1-0.8h-0.8V11.5
		z"/>
	<path class="st1" d="M93.9,1.6v11.6h-1.8V1.6H93.9z"/>
	<path class="st1" d="M109.2,7.4c0,3.4-2.6,6-6,6c-3.5,0-6-2.6-6-6c0-3.4,2.6-6,6-6C106.6,1.4,109.2,4,109.2,7.4z M107.4,7.4
		c0-2.6-1.8-4.4-4.3-4.4c-2.5,0-4.3,1.8-4.3,4.4c0,2.6,1.8,4.4,4.3,4.4C105.6,11.8,107.4,10,107.4,7.4z"/>
</g>
</svg>
